<svg width="20" height="20" viewBox="0 0 20 20" fill="none" xmlns="http://www.w3.org/2000/svg">
<path d="M8.67451 4.72158L5.57343 1.14101C5.21593 0.728394 4.56051 0.730227 4.14526 1.14651L1.59509 3.70196C0.836093 4.46209 0.618843 5.59082 1.05793 6.49582C3.68108 11.9285 8.0613 16.3161 13.4888 18.9476C14.3927 19.3868 15.5202 19.1695 16.2792 18.4094L18.8532 15.8301C19.2703 15.4129 19.2712 14.7536 18.855 14.396L15.2617 11.3106C14.8858 10.9878 14.3019 11.03 13.9252 11.4078L12.6748 12.6603C12.6108 12.7274 12.5266 12.7716 12.435 12.7862C12.3434 12.8008 12.2496 12.7849 12.1679 12.741C10.1242 11.5637 8.42884 9.86571 7.25459 7.81985C7.21062 7.73801 7.19469 7.64401 7.20927 7.55225C7.22384 7.46049 7.2681 7.37605 7.33526 7.31187L8.58193 6.06395C8.95959 5.68434 9.00084 5.09751 8.67451 4.72066V4.72158Z" stroke="#F8F8F8" stroke-linecap="round" stroke-linejoin="round"/>
</svg>
